<svg width="380" height="620" viewBox="0 0 380 620" fill="none" xmlns="http://www.w3.org/2000/svg">
  <rect x="70" y="10" width="240" height="600" rx="42" fill="#0F172A"/>
  <rect x="80" y="20" width="220" height="580" rx="34" fill="#F8FBFF"/>
  <rect x="150" y="34" width="80" height="20" rx="10" fill="#111827"/>
  <circle cx="105" cy="92" r="16" fill="#4F8CFF"/>
  <rect x="130" y="84" width="74" height="10" rx="5" fill="#1E293B" fill-opacity="0.85"/>
  <rect x="130" y="99" width="46" height="8" rx="4" fill="#64748B" fill-opacity="0.8"/>
  <rect x="96" y="140" width="188" height="120" rx="20" fill="url(#g1)"/>
  <rect x="96" y="278" width="90" height="70" rx="16" fill="#E9F1FF"/>
  <rect x="194" y="278" width="90" height="70" rx="16" fill="#E9F1FF"/>
  <rect x="96" y="360" width="188" height="64" rx="16" fill="#F1F5FF"/>
  <rect x="96" y="436" width="188" height="64" rx="16" fill="#F1F5FF"/>
  <rect x="96" y="512" width="110" height="44" rx="22" fill="url(#g2)"/>
  <rect x="214" y="512" width="70" height="44" rx="22" fill="#E2E8F0"/>
  <defs>
    <linearGradient id="g1" x1="96" y1="140" x2="284" y2="260" gradientUnits="userSpaceOnUse">
      <stop stop-color="#6EA8FF"/>
      <stop offset="1" stop-color="#4F8CFF"/>
    </linearGradient>
    <linearGradient id="g2" x1="96" y1="512" x2="206" y2="556" gradientUnits="userSpaceOnUse">
      <stop stop-color="#4F8CFF"/>
      <stop offset="1" stop-color="#6EA8FF"/>
    </linearGradient>
  </defs>
</svg>
